<svg preserveAspectRatio="none" width="100%" height="100%" overflow="visible" style="display: block;" viewBox="0 0 13.65 12.075" fill="none" xmlns="http://www.w3.org/2000/svg">
<g id="Group">
<path id="Vector" d="M12.4688 2.625H3.07125L3.85875 6.5625H11.6288L12.4688 2.625Z" fill="var(--fill-0, #91DB8B)"/>
<path id="Vector_2" d="M12.5738 7.1925L13.65 2.205C13.65 2.1525 13.65 2.12625 13.65 2.07375C13.65 1.785 13.4138 1.54875 13.125 1.54875H2.86125L2.625 0.42C2.5725 0.18375 2.3625 0 2.1 0H0.525C0.23625 0 0 0.23625 0 0.525C0 0.81375 0.23625 1.05 0.525 1.05H1.68L3.3075 9.05625C2.75625 9.2925 2.3625 9.84375 2.3625 10.5C2.3625 11.3663 3.07125 12.075 3.9375 12.075C4.80375 12.075 5.5125 11.3663 5.5125 10.5C5.5125 10.3163 5.48625 10.1325 5.43375 9.975H9.2925C9.24 10.1325 9.21375 10.3163 9.21375 10.5C9.21375 11.3663 9.9225 12.075 10.7888 12.075C11.655 12.075 12.3638 11.3663 12.3638 10.5C12.3638 10.3163 12.3375 10.1325 12.285 9.975H12.6263C12.915 9.975 13.1513 9.73875 13.1513 9.45C13.1513 9.16125 12.915 8.925 12.6263 8.925H10.7625H4.33125L4.06875 7.6125H12.0488C12.3113 7.6125 12.5213 7.455 12.5738 7.1925Z" fill="var(--fill-0, #396547)"/>
<path id="Vector_3" d="M10.7625 11.025C11.0525 11.025 11.2875 10.7899 11.2875 10.5C11.2875 10.2101 11.0525 9.975 10.7625 9.975C10.4726 9.975 10.2375 10.2101 10.2375 10.5C10.2375 10.7899 10.4726 11.025 10.7625 11.025Z" fill="var(--fill-0, #396547)"/>
<path id="Vector_4" d="M3.07125 2.625H12.4688L11.6288 6.5625H3.85875L3.07125 2.625Z" fill="var(--fill-0, #91DB8B)"/>
<path id="Vector_5" d="M3.9375 11.025C4.22745 11.025 4.4625 10.7899 4.4625 10.5C4.4625 10.2101 4.22745 9.975 3.9375 9.975C3.64755 9.975 3.4125 10.2101 3.4125 10.5C3.4125 10.7899 3.64755 11.025 3.9375 11.025Z" fill="var(--fill-0, #396547)"/>
<path id="Vector_6" d="M3.9375 11.025C4.22745 11.025 4.4625 10.7899 4.4625 10.5C4.4625 10.2101 4.22745 9.975 3.9375 9.975C3.64755 9.975 3.4125 10.2101 3.4125 10.5C3.4125 10.7899 3.64755 11.025 3.9375 11.025Z" fill="var(--fill-0, white)"/>
<path id="Vector_7" d="M10.7625 11.025C11.0525 11.025 11.2875 10.7899 11.2875 10.5C11.2875 10.2101 11.0525 9.975 10.7625 9.975C10.4726 9.975 10.2375 10.2101 10.2375 10.5C10.2375 10.7899 10.4726 11.025 10.7625 11.025Z" fill="var(--fill-0, white)"/>
</g>
</svg>
