<svg preserveAspectRatio="none" width="100%" height="100%" overflow="visible" style="display: block;" viewBox="0 0 12.7419 12.7419" fill="none" xmlns="http://www.w3.org/2000/svg">
<g id="Group">
<path id="Vector" d="M1.01935 6.93161L2.95613 4.99483C3.16 4.79096 3.4658 4.79096 3.66967 4.99483L5.35161 6.65128L8.2058 3.82258H5.86129C5.58096 3.82258 5.35161 3.59322 5.35161 3.3129C5.35161 3.03258 5.58096 2.80322 5.86129 2.80322H9.42902C9.70935 2.80322 9.9387 3.03258 9.9387 3.3129V6.88064C9.9387 7.16096 9.70935 7.39032 9.42902 7.39032C9.1487 7.39032 8.91935 7.16096 8.91935 6.88064V4.53613L5.73387 7.74709C5.53 7.95096 5.22419 7.95096 5.02032 7.74709L3.3129 6.06516L1.01935 8.3587V11.7226H2.80322V10.1935C2.80322 9.91322 3.03258 9.68386 3.3129 9.68386C3.59322 9.68386 3.82258 9.91322 3.82258 10.1935V11.7226H5.86129V10.1935C5.86129 9.91322 6.09064 9.68386 6.37096 9.68386C6.65128 9.68386 6.88064 9.91322 6.88064 10.1935V11.7226H8.91935V10.1935C8.91935 9.91322 9.1487 9.68386 9.42902 9.68386C9.70935 9.68386 9.9387 9.91322 9.9387 10.1935V11.7226H11.7226V1.01935H1.01935V6.93161Z" fill="var(--fill-0, #04E1CB)"/>
<path id="Vector_2" d="M5.02032 7.74709C5.22419 7.95096 5.52999 7.95096 5.73387 7.74709L8.91935 4.53612V6.88064C8.91935 7.16096 9.1487 7.39032 9.42902 7.39032C9.70935 7.39032 9.9387 7.16096 9.9387 6.88064V3.3129C9.9387 3.03258 9.70935 2.80322 9.42902 2.80322H5.86128C5.58096 2.80322 5.35161 3.03258 5.35161 3.3129C5.35161 3.59322 5.58096 3.82258 5.86128 3.82258H8.2058L5.35161 6.65128L3.66967 4.99483C3.4658 4.79096 3.16 4.79096 2.95613 4.99483L1.01935 6.93161V8.3587L3.3129 6.06516L5.02032 7.74709Z" fill="var(--fill-0, white)"/>
<path id="Vector_3" d="M12.2322 0H0.509677C0.229355 0 0 0.229355 0 0.509677V12.2322C0 12.5126 0.229355 12.7419 0.509677 12.7419H12.2322C12.5126 12.7419 12.7419 12.5126 12.7419 12.2322V0.509677C12.7419 0.229355 12.5126 0 12.2322 0ZM11.7226 11.7226H9.9387V10.1935C9.9387 9.91322 9.70935 9.68386 9.42902 9.68386C9.1487 9.68386 8.91935 9.91322 8.91935 10.1935V11.7226H6.88064V10.1935C6.88064 9.91322 6.65128 9.68386 6.37096 9.68386C6.09064 9.68386 5.86129 9.91322 5.86129 10.1935V11.7226H3.82258V10.1935C3.82258 9.91322 3.59322 9.68386 3.3129 9.68386C3.03258 9.68386 2.80322 9.91322 2.80322 10.1935V11.7226H1.01935V8.3587V6.93161V1.01935H11.7226V11.7226Z" fill="var(--fill-0, #0B827C)"/>
</g>
</svg>
