<svg preserveAspectRatio="none" width="100%" height="100%" overflow="visible" style="display: block;" viewBox="0 0 8.925 8.95125" fill="none" xmlns="http://www.w3.org/2000/svg">
<path id="Vector" d="M6.7725 7.53375C6.615 7.37625 6.3525 7.32375 6.1425 7.455C5.90625 7.58625 5.64375 7.69125 5.38125 7.77C5.145 7.8225 4.9875 8.0325 4.9875 8.26875V8.95125H3.9375V6.7725C4.095 6.79875 4.27875 6.825 4.4625 6.825C5.775 6.825 6.825 5.775 6.825 4.4625C6.825 3.15 5.775 2.1 4.4625 2.1C3.15 2.1 2.1 3.15 2.1 4.4625C2.1 4.64625 2.12625 4.83 2.1525 4.9875H0V3.9375H0.6825C0.91875 3.9375 1.12875 3.78 1.18125 3.54375C1.26 3.28125 1.365 3.01875 1.49625 2.7825C1.60125 2.5725 1.575 2.31 1.4175 2.1525L0.945 1.68L1.68 0.945L2.1525 1.4175C2.31 1.575 2.5725 1.6275 2.7825 1.49625C3.01875 1.365 3.28125 1.26 3.54375 1.18125C3.78 1.12875 3.9375 0.91875 3.9375 0.6825V0H4.9875V0.6825C4.9875 0.91875 5.145 1.12875 5.38125 1.18125C5.64375 1.26 5.90625 1.365 6.1425 1.49625C6.3525 1.60125 6.615 1.575 6.7725 1.4175L7.245 0.945L7.98 1.68L7.5075 2.1525C7.35 2.31 7.2975 2.5725 7.42875 2.7825C7.56 3.01875 7.665 3.28125 7.74375 3.54375C7.79625 3.78 8.00625 3.9375 8.2425 3.9375H8.925V4.9875H8.2425C8.00625 4.9875 7.79625 5.145 7.74375 5.38125C7.665 5.64375 7.56 5.90625 7.42875 6.1425C7.32375 6.3525 7.35 6.615 7.5075 6.7725L7.98 7.245L7.245 8.0325L6.7725 7.53375Z" fill="var(--fill-0, #04E1CB)"/>
</svg>
