<svg preserveAspectRatio="none" width="100%" height="100%" overflow="visible" style="display: block;" viewBox="0 0 12.9968 13.2516" fill="none" xmlns="http://www.w3.org/2000/svg">
<g id="Group">
<path id="Vector" d="M5.60645 7.13548C4.33225 7.13548 3.3129 8.15483 3.3129 9.42902C3.3129 9.47999 3.3129 9.53096 3.28742 9.55644C3.97548 9.96418 4.76548 10.1935 5.60645 10.1935C6.44741 10.1935 7.23741 9.96418 7.92548 9.55644C7.92548 9.50548 7.89999 9.47999 7.89999 9.42902C7.89999 8.15483 6.88064 7.13548 5.60645 7.13548Z" fill="var(--fill-0, white)"/>
<path id="Vector_2" d="M5.60645 6.11612C6.45091 6.11612 7.13548 5.43155 7.13548 4.58709C7.13548 3.74263 6.45091 3.05806 5.60645 3.05806C4.76199 3.05806 4.07742 3.74263 4.07742 4.58709C4.07742 5.43155 4.76199 6.11612 5.60645 6.11612Z" fill="var(--fill-0, white)"/>
<path id="Vector_3" d="M3.97548 6.54935C3.41484 6.09064 3.05806 5.37709 3.05806 4.58709C3.05806 3.18548 4.20484 2.03871 5.60645 2.03871C7.00806 2.03871 8.15483 3.18548 8.15483 4.58709C8.15483 5.37709 7.79806 6.09064 7.23741 6.54935C8.07838 7.03354 8.68999 7.84903 8.86838 8.8429C9.68386 8.00193 10.1935 6.88064 10.1935 5.60645C10.1935 3.08355 8.12935 1.01935 5.60645 1.01935C3.08355 1.01935 1.01935 3.08355 1.01935 5.60645C1.01935 6.85516 1.52903 8.00193 2.34451 8.8429C2.5229 7.84903 3.13451 7.03354 3.97548 6.54935Z" fill="var(--fill-0, #FFBA90)"/>
<path id="Vector_4" d="M12.8439 11.111L10.3464 8.61354C10.9071 7.74709 11.2129 6.72774 11.2129 5.60645C11.2129 2.49742 8.68999 0 5.60645 0C2.5229 0 0 2.49742 0 5.60645C0 8.71548 2.5229 11.2129 5.60645 11.2129C6.57483 11.2129 7.49225 10.9581 8.28225 10.5248L10.8561 13.0987C10.9581 13.2006 11.0855 13.2516 11.2129 13.2516C11.3403 13.2516 11.4677 13.2006 11.5697 13.0987L12.8439 11.8245C13.0477 11.6206 13.0477 11.3148 12.8439 11.111Z" fill="var(--fill-0, #DD7A01)"/>
<path id="Vector_5" d="M1.01935 5.60645C1.01935 3.08355 3.08355 1.01935 5.60645 1.01935C8.12935 1.01935 10.1935 3.08355 10.1935 5.60645C10.1935 6.85516 9.68386 8.00193 8.86838 8.8429C8.68999 7.84903 8.07838 7.03354 7.23741 6.54935C7.79806 6.09064 8.15483 5.37709 8.15483 4.58709C8.15483 3.18548 7.00806 2.03871 5.60645 2.03871C4.20484 2.03871 3.05806 3.18548 3.05806 4.58709C3.05806 5.37709 3.41484 6.09064 3.97548 6.54935C3.13451 7.03354 2.5229 7.84903 2.34451 8.8429C1.52903 8.00193 1.01935 6.85516 1.01935 5.60645Z" fill="var(--fill-0, #FFBA90)"/>
<path id="Vector_6" d="M5.60645 6.11612C6.45091 6.11612 7.13548 5.43155 7.13548 4.58709C7.13548 3.74263 6.45091 3.05806 5.60645 3.05806C4.76199 3.05806 4.07742 3.74263 4.07742 4.58709C4.07742 5.43155 4.76199 6.11612 5.60645 6.11612Z" fill="var(--fill-0, white)"/>
<path id="Vector_7" d="M5.60645 10.1935C4.76548 10.1935 3.97548 9.96418 3.28742 9.55644C3.28742 9.50548 3.3129 9.47999 3.3129 9.42902C3.3129 8.15483 4.33225 7.13548 5.60645 7.13548C6.88064 7.13548 7.89999 8.15483 7.89999 9.42902C7.89999 9.47999 7.89999 9.53096 7.92548 9.55644C7.23741 9.96418 6.44741 10.1935 5.60645 10.1935Z" fill="var(--fill-0, white)"/>
<path id="Vector_8" d="M11.2129 12.0284L9.1487 9.96418C9.25064 9.88773 9.35257 9.81128 9.42902 9.70935L9.45451 9.68386C9.55644 9.60741 9.63289 9.50548 9.70935 9.42902L11.7481 11.4677L11.2129 12.0284Z" fill="var(--fill-0, #DD7A01)"/>
<path id="Vector_9" d="M9.70935 9.42902C9.63289 9.53096 9.53096 9.60741 9.45451 9.68386L9.42902 9.70935C9.32709 9.7858 9.25064 9.88773 9.1487 9.96418L11.2129 12.0284L11.7735 11.4677L9.70935 9.42902Z" fill="var(--fill-0, white)"/>
<g id="Vector_10">
</g>
<g id="Vector_11">
</g>
</g>
</svg>
