<svg preserveAspectRatio="none" width="100%" height="100%" overflow="visible" style="display: block;" viewBox="0 0 14.2115 12.0793" fill="none" xmlns="http://www.w3.org/2000/svg">
<g id="Group">
<path id="Vector" d="M12.3257 1.78387C11.3063 0.815483 9.72633 0.815483 8.73246 1.78387L7.43278 3.08355C7.22891 3.28742 6.9231 3.28742 6.71923 3.08355L5.41956 1.78387C4.93536 1.29968 4.27278 1.01935 3.58472 1.01935C2.13214 1.01935 0.959884 2.19161 0.959884 3.61871C0.959884 4.30677 1.24021 4.96935 1.7244 5.47903L7.07601 10.8306L12.4276 5.47903C13.4215 4.43419 13.3705 2.77774 12.3257 1.78387Z" fill="var(--fill-0, #FF538A)"/>
<path id="Vector_2" d="M3.76311 3.05806C3.32988 3.05806 2.99859 3.38935 2.99859 3.82258C2.99859 4.1029 2.76924 4.33225 2.48891 4.33225C2.20859 4.33225 1.97924 4.1029 1.97924 3.82258C1.97924 2.82871 2.76924 2.03871 3.76311 2.03871C4.04343 2.03871 4.27278 2.26806 4.27278 2.54838C4.27278 2.82871 4.04343 3.05806 3.76311 3.05806Z" fill="var(--fill-0, #FF538A)"/>
<path id="Vector_3" d="M13.1412 1.07032C11.7141 -0.356774 9.42052 -0.356774 7.99343 1.07032L7.05052 2.01322L6.10762 1.07032C4.70601 -0.254838 2.5144 -0.254838 1.11279 1.07032C-0.314309 2.44645 -0.39076 4.76548 1.01085 6.21806L6.71923 11.9264C6.82117 12.0284 6.94859 12.0793 7.07601 12.0793C7.20343 12.0793 7.33085 12.0284 7.43278 11.9264L13.1412 6.21806C14.5683 4.79096 14.5683 2.49742 13.1412 1.07032Z" fill="var(--fill-0, #8A033E)"/>
<path id="Vector_4" d="M7.07601 10.8306L1.7244 5.47903C1.24021 4.99483 0.959884 4.33225 0.959884 3.61871C0.959884 2.16613 2.13214 1.01935 3.58472 1.01935C4.27278 1.01935 4.93536 1.29968 5.41956 1.78387L6.71923 3.08355C6.9231 3.28742 7.22891 3.28742 7.43278 3.08355L8.73246 1.78387C9.75181 0.815483 11.3318 0.815483 12.3257 1.78387C13.3705 2.77774 13.4215 4.43419 12.4276 5.47903L7.07601 10.8306Z" fill="var(--fill-0, #FF538A)"/>
<path id="Vector_5" d="M3.76311 2.03871C2.76924 2.03871 1.97924 2.82871 1.97924 3.82258C1.97924 4.1029 2.20859 4.33225 2.48891 4.33225C2.76924 4.33225 2.99859 4.1029 2.99859 3.82258C2.99859 3.38935 3.32988 3.05806 3.76311 3.05806C4.04343 3.05806 4.27278 2.82871 4.27278 2.54838C4.27278 2.26806 4.04343 2.03871 3.76311 2.03871Z" fill="var(--fill-0, white)"/>
</g>
</svg>
