<svg preserveAspectRatio="none" width="100%" height="100%" overflow="visible" style="display: block;" viewBox="0 0 11.0018 14.7103" fill="none" xmlns="http://www.w3.org/2000/svg">
<g id="Group">
<path id="Vector" d="M8.1391 1.90031C6.1441 0.456558 3.3616 0.902808 1.8916 2.89781C0.762852 4.47281 0.762852 6.57281 1.8916 8.14781C1.91785 8.17406 1.91785 8.20031 1.9441 8.22656L5.5141 13.2666L9.0841 8.20031C9.0841 8.17406 9.11035 8.14781 9.1366 8.12156C10.5804 6.15281 10.1341 3.34406 8.1391 1.90031Z" fill="var(--fill-0, #FF538A)"/>
<path id="Vector_2" d="M8.1391 6.44156L5.8816 8.69906C5.7766 8.80406 5.64535 8.85656 5.5141 8.83031C5.38285 8.83031 5.2516 8.77781 5.1466 8.67281L2.8891 6.44156C2.1541 5.81156 2.0491 4.70906 2.70535 3.94781C3.33535 3.21281 4.43785 3.10781 5.1991 3.76406C5.27785 3.81656 5.33035 3.89531 5.38285 3.94781L5.5141 4.07906L5.64535 3.94781C6.32785 3.26531 7.43035 3.26531 8.1391 3.94781C8.8216 4.63031 8.8216 5.75906 8.1391 6.44156Z" fill="var(--fill-0, #FF538A)"/>
<path id="Vector_3" d="M10.0291 2.34656C8.27035 -0.147192 4.85785 -0.750942 2.3641 1.00781C-0.129649 2.74031 -0.759649 6.17906 0.999102 8.67281C1.02535 8.69906 1.02535 8.72531 1.0516 8.75156L5.0941 14.5003C5.1991 14.6316 5.3566 14.7103 5.5141 14.7103C5.6716 14.7103 5.85535 14.6316 5.9341 14.5003L9.9766 8.75156C10.0029 8.72531 10.0029 8.69906 10.0029 8.69906C10.6591 7.78031 11.0004 6.67781 11.0004 5.54906C11.0266 4.39406 10.6854 3.29156 10.0291 2.34656Z" fill="var(--fill-0, #8A033E)"/>
<path id="Vector_4" d="M9.0841 8.20031L5.5141 13.2666L1.9441 8.22656C1.91785 8.20031 1.91785 8.17406 1.8916 8.14781C0.762852 6.57281 0.762852 4.47281 1.8916 2.89781C3.33535 0.902808 6.11785 0.456558 8.11285 1.90031C10.1079 3.34406 10.5541 6.12656 9.11035 8.12156C9.11035 8.17406 9.0841 8.17406 9.0841 8.20031Z" fill="var(--fill-0, #FF538A)"/>
<path id="Vector_5" d="M7.4041 4.68281C7.11535 4.39406 6.6691 4.39406 6.4066 4.68281L5.8816 5.20781C5.6716 5.41781 5.3566 5.41781 5.1466 5.20781L4.6216 4.68281C4.49035 4.55156 4.33285 4.47281 4.1491 4.47281C3.75535 4.47281 3.44035 4.78781 3.44035 5.18156C3.44035 5.36531 3.5191 5.54906 3.65035 5.68031L5.54035 7.57031L7.43035 5.68031C7.69285 5.41781 7.69285 4.97156 7.4041 4.68281Z" fill="var(--fill-0, white)"/>
<path id="Vector_6" d="M5.64535 3.94781L5.5141 4.10531L5.38285 3.94781C5.33035 3.86906 5.2516 3.81656 5.1991 3.76406C4.4641 3.13406 3.33535 3.21281 2.70535 3.94781C2.07535 4.68281 2.1541 5.81156 2.8891 6.44156L5.1466 8.69906C5.2516 8.80406 5.38285 8.85656 5.5141 8.85656C5.64535 8.85656 5.7766 8.80406 5.8816 8.72531L8.1391 6.46781C8.8216 5.78531 8.8216 4.65656 8.1391 3.97406C7.4566 3.26531 6.3541 3.26531 5.64535 3.94781Z" fill="var(--fill-0, #8A033E)"/>
<path id="Vector_7" d="M7.4041 5.70656L5.5141 7.59656L3.6241 5.70656C3.49285 5.57531 3.4141 5.39156 3.4141 5.20781C3.4141 4.81406 3.7291 4.49906 4.12285 4.49906C4.3066 4.49906 4.4641 4.57781 4.59535 4.70906L5.12035 5.23406C5.33035 5.44406 5.64535 5.44406 5.85535 5.23406L6.38035 4.70906C6.6691 4.42031 7.11535 4.42031 7.37785 4.70906C7.69285 4.97156 7.69285 5.41781 7.4041 5.70656Z" fill="var(--fill-0, white)"/>
</g>
</svg>
