<svg preserveAspectRatio="none" width="100%" height="100%" overflow="visible" style="display: block;" viewBox="0 0 14.7 11.8125" fill="none" xmlns="http://www.w3.org/2000/svg">
<path id="Vector" d="M14.7 4.4625C14.7 4.17375 14.4638 3.9375 14.175 3.9375H13.3613C13.335 3.85875 13.2825 3.75375 13.2563 3.675L13.8338 3.0975C13.9388 2.9925 13.9913 2.86125 13.9913 2.73C13.9913 2.59875 13.9388 2.4675 13.8338 2.3625L12.3375 0.86625C12.1275 0.65625 11.8125 0.65625 11.6025 0.86625L11.025 1.44375C10.9463 1.4175 10.8413 1.365 10.7625 1.33875V0.525C10.7625 0.23625 10.5263 0 10.2375 0H8.1375C7.84875 0 7.6125 0.23625 7.6125 0.525V1.33875C7.53375 1.365 7.42875 1.4175 7.35 1.44375L6.7725 0.86625C6.5625 0.65625 6.2475 0.65625 6.0375 0.86625L4.54125 2.3625C4.33125 2.5725 4.33125 2.8875 4.54125 3.0975L5.11875 3.675C5.0925 3.75375 5.04 3.85875 5.01375 3.9375H4.2C3.91125 3.9375 3.675 4.17375 3.675 4.4625V6.0375H0.525C0.23625 6.0375 0 6.27375 0 6.5625V11.2875C0 11.5763 0.23625 11.8125 0.525 11.8125H8.1375C8.42625 11.8125 8.6625 11.5763 8.6625 11.2875V11.025H10.2375C10.5263 11.025 10.7625 10.7888 10.7625 10.5V9.68625C10.8413 9.66 10.9463 9.6075 11.025 9.58125L11.6025 10.1588C11.8125 10.3688 12.1275 10.3688 12.3375 10.1588L13.8338 8.6625C13.9388 8.5575 13.9913 8.42625 13.9913 8.295C13.9913 8.16375 13.9388 8.0325 13.8338 7.9275L13.2563 7.35C13.2825 7.27125 13.335 7.16625 13.3613 7.0875H14.175C14.3063 7.0875 14.4375 7.035 14.5425 6.93C14.6475 6.825 14.7 6.69375 14.7 6.5625V4.4625Z" fill="var(--fill-0, #0B827C)"/>
</svg>
