<svg width="36" height="36" viewBox="0 0 36 36" fill="none" xmlns="http://www.w3.org/2000/svg">
<path d="M30.6916 12.8672L17.8772 7.22461C17.6135 7.11914 17.2971 7.11914 17.0334 7.22461L4.27172 12.8672C3.90258 13.0254 3.63891 13.3945 3.63891 13.8164C3.63891 14.1328 3.74438 14.3965 4.00805 14.6074L4.00805 19.1953L2.63695 21.5156C2.32055 21.9902 2.47875 22.6758 3.00609 22.9394C3.1643 23.0449 3.37523 23.0977 3.53344 23.0977C3.90258 23.0977 4.21898 22.9394 4.42992 22.5703L5.06273 21.5156L5.69555 22.5703C5.90648 22.8867 6.22289 23.0977 6.59203 23.0977C6.80297 23.0977 6.96117 23.0449 7.11937 22.9394C7.59398 22.623 7.80492 21.9902 7.48851 21.5156L6.11742 19.1953L6.11742 15.6094L8.385 16.6113V22.1484C8.385 22.4121 8.49047 22.6758 8.64867 22.8867C8.70141 22.9395 12.2873 26.6309 17.508 26.6309C20.092 26.6309 23.0979 25.7344 26.2619 22.9394C26.4729 22.7285 26.6311 22.4648 26.6311 22.1484V16.5586L30.6916 14.7656C31.0608 14.6074 31.3244 14.2383 31.3244 13.8164C31.3244 13.3945 31.0608 13.0254 30.6916 12.8672Z" fill="#481A54"/>
<path d="M25.5762 14.7129L17.4551 18.2988L9.38672 14.7129L7.27734 13.8164L17.4551 9.33398L27.6328 13.8164L25.5762 14.7129Z" fill="#D17DFE"/>
<path d="M24.5215 21.6738C17.5605 27.4219 11.7598 22.9395 10.4414 21.7266V17.5078L17.0332 20.4082C17.1914 20.4609 17.2969 20.5137 17.4551 20.5137C17.6133 20.5137 17.7187 20.4609 17.877 20.4082L24.4687 17.5078V21.6738H24.5215Z" fill="#D17DFE"/>
</svg>
